<svg id="Capa_1" enable-background="new 0 0 512 512" height="512" viewBox="0 0 512 512" width="512" xmlns="http://www.w3.org/2000/svg"><g><path d="m154.995 466h202.01c85.459 0 154.995-69.536 154.995-154.995 0-47.65-22.43-93.113-60-122.3v-67.705c0-41.353-33.647-75-75-75h-242c-41.353 0-75 33.647-75 75v67.705c-37.57 29.187-60 74.65-60 122.3 0 85.459 69.536 154.995 154.995 154.995zm237.005-180h-60v30h-30v-30h-182v-30h272zm-257-210h242c24.814 0 45 20.186 45 45v45.007l-40.005-30.007h-251.99l-40.005 30.007v-45.007c0-24.814 20.186-45 45-45z"/></g></svg>