<?xml version="1.0" encoding="iso-8859-1"?>
<!-- Generator: Adobe Illustrator 19.0.0, SVG Export Plug-In . SVG Version: 6.00 Build 0)  -->
<svg version="1.1" id="Capa_1" xmlns="http://www.w3.org/2000/svg" xmlns:xlink="http://www.w3.org/1999/xlink" x="0px" y="0px"
	 viewBox="0 0 512 512" style="enable-background:new 0 0 512 512;" xml:space="preserve">
<g>
	<g>
		<path d="M448.764,0l-64.013,20.853c5.082,9.339,8.556,19.517,10.246,30.157h69.809L448.764,0z"/>
	</g>
</g>
<g>
	<g>
		<path d="M341.968,15.627c-5.341-4.272-11.224-7.6-17.428-9.961v57.506h-30V1.883c-2.351,0.265-4.702,0.657-7.043,1.184
			l-85.309,19.207v40.898h-30V29.029l-116.37,26.2c-5.078,1.144-8.624,5.576-8.624,10.781s3.546,9.638,8.624,10.781l55.193,12.426
			v-17.36h30v24.114l92.353,20.793V80.52h30v42.999l24.133,5.433c19.226,4.329,39.081-0.249,54.471-12.56
			c15.39-12.311,24.217-30.675,24.217-50.383C366.186,46.301,357.358,27.938,341.968,15.627z"/>
	</g>
</g>
<g>
	<g>
		<path d="M394.997,81.01c-1.691,10.639-5.165,20.818-10.247,30.157l64.013,20.853l16.042-51.01H394.997z"/>
	</g>
</g>
<g>
	<g>
		<path d="M301.783,160.548c-6.992-0.001-14.016-0.784-20.876-2.328l-0.252-0.057v49.598H263.51v-53.458l-6.737-1.517l-23.263-5.237
			v60.212h-17.145v-64.072l-30-6.754v70.826h-16.476v-74.536l-30-6.754v94.014c0,41.962,30.435,76.925,70.383,84.037v64.608h-39.748
			V512H280.02V369.13h-39.748v-64.608c39.949-7.113,70.383-42.076,70.383-84.037v-60.378
			C307.712,160.39,304.751,160.548,301.783,160.548z"/>
	</g>
</g>
<g>
</g>
<g>
</g>
<g>
</g>
<g>
</g>
<g>
</g>
<g>
</g>
<g>
</g>
<g>
</g>
<g>
</g>
<g>
</g>
<g>
</g>
<g>
</g>
<g>
</g>
<g>
</g>
<g>
</g>
</svg>
